<svg xmlns="http://www.w3.org/2000/svg" width="960" height="640" viewBox="0 0 960 640" role="img">
<style>
svg{background:#fbfaf7;color:#1f2933;font-family:"Comic Sans MS","Bradley Hand","Segoe Print",cursive,sans-serif}
.line{fill:none;stroke:#1f2933;stroke-width:2.2;stroke-linecap:round;stroke-linejoin:round}
.thin{stroke-width:1.4}
.fill{fill:#fffdf8}
.soft{fill:#f3efe7}
.text{fill:#1f2933;font-size:16px}
.small{font-size:13px;fill:#52606d}
.title{font-size:18px;font-weight:700}
.button{fill:#fdfbf5}
.muted{stroke:#9aa5b1}
.chrome{fill:#f7f7f4}
.accent{fill:#e8f2ff}
.note{fill:#fff2cc;stroke:#d6b656}
.note-connector{fill:none;stroke:#ffd966;stroke-width:2;stroke-linecap:round;stroke-linejoin:round}
.badge-fill{fill:#fffdf8}
.nav{fill:#1f2933;stroke:none}
.nav-stroke{fill:none;stroke:#52606d;stroke-width:3.2;stroke-linecap:round;stroke-linejoin:round}
.fill-only{stroke:none}
</style>
<defs><filter id="wobble"><feTurbulence type="fractalNoise" baseFrequency="0.015" numOctaves="2" seed="8"/><feDisplacementMap in="SourceGraphic" scale="0.7"/></filter></defs>
<rect x="16" y="16" width="928" height="608" rx="6" class="fill fill-only"/>
<path d="M16.49 15.46 C238.58 19.38, 461.4 19.21, 944.51 15.49 M16.21 16.16 C270.42 15.75, 525.57 15.31, 944.18 16.2 M944.63 16.2 C945.81 141.6, 945.83 265.81, 944.24 623.64 M944.33 15.95 C942.3 173.56, 942.11 331, 943.65 624.24 M943.29 624.7 C649.99 621.82, 356.3 622.38, 15.33 624.66 M944.22 623.82 C597.37 623.54, 250.31 624.05, 15.83 623.82 M15.71 624.13 C17.6 395.19, 16.84 166.24, 15.35 16.53 M15.73 623.71 C16.37 473.5, 16.7 323.56, 16.17 16.16" class="line"/>
<text x="38" y="47" class="text title">Schedule Context Menu</text>
<path d="M16.01 64.54 C272.29 61.66, 526.89 61.37, 943.62 63.81 M16.29 64.29 C350.25 64.09, 684.19 64.64, 943.83 63.68" class="line thin"/>
<text x="32" y="96" class="text">Schedule Actions</text>
<rect x="32" y="110" width="896" height="72" rx="6" class="fill fill-only"/>
<path d="M31.53 110.18 C310.6 107.27, 589.9 108.3, 928.17 110.14 M31.65 109.7 C251.9 111.11, 472.61 111.22, 928.19 109.88 M928.06 110.92 C928.81 123.64, 929.35 140.57, 928.14 180.34 M927.59 110.86 C929.44 132.11, 927.79 155.42, 927.22 181.56 M928.11 182.54 C625.55 179.1, 324.66 179.53, 31.98 181.58 M928.23 181.67 C679.18 184.27, 431.12 184.26, 32.22 182.08 M30.43 180.63 C33.44 164.77, 33.08 143.39, 31.23 109.61 M31.33 181.13 C32.94 155.33, 32.74 128.43, 32.83 110.78" class="line"/>
<text x="50" y="138" class="text">Calendar: Maintenance Calendar</text>
<rect x="32" y="182" width="896" height="72" rx="6" class="fill fill-only"/>
<path d="M32.49 181.82 C343.17 180.21, 653.12 179.68, 928.72 182.46 M31.72 181.83 C329 184.14, 625.75 183.8, 927.84 182.08 M927.3 183.13 C929.42 196.06, 926.61 213.2, 929.71 253.76 M927.87 182.46 C929.03 205.74, 928.59 230.52, 928.17 253.93 M927.8 254.45 C706.59 254.64, 484.47 255.01, 32.3 254.48 M928.23 253.95 C633.23 254.41, 338.36 254.5, 31.7 254.21 M33.61 253.58 C31.59 232.55, 32.01 208.65, 31.65 180.75 M32.23 254.87 C32.12 235.65, 31.43 219.88, 32.13 182.07" class="line"/>
<text x="50" y="210" class="text">Tree: Equipment Groups</text>
<rect x="32" y="258" width="184" height="28" rx="14" class="soft fill-only"/>
<path d="M32.03 256.66 C101.49 258.4, 173.9 256.78, 215.56 256.37 M31.5 257.89 C71.14 258.75, 112.45 258.6, 216.51 258.69 M214.55 259.34 C217.03 263.31, 214.46 271.48, 215.68 287.18 M216.15 258.05 C216.34 267.4, 215.32 277.69, 215.32 286.31 M214.73 286.92 C149.02 285.76, 85.38 282.93, 33.56 285.84 M216.57 286.58 C145.28 285.42, 75.83 285.89, 31.73 286.86 M33.19 286.53 C33.29 275.67, 30.88 268.18, 32.07 259.49 M31.33 286.8 C32.38 276.92, 32.98 269.59, 31.43 257.36" class="line thin"/>
<text x="43" y="277" class="text small">3 pending approvals</text>
<rect x="783" y="428" width="145" height="40" rx="10" class="button fill-only"/>
<path d="M781.83 429.37 C815.42 426.19, 845.94 427.87, 928.94 427.19 M782.7 428.21 C827.01 426.78, 870.57 427.31, 927.63 427.38 M929.39 429.55 C929.38 436.22, 927.06 443.46, 929.25 467 M928.43 427.65 C928.05 444.35, 928.24 459.64, 928.28 468.69 M929.55 468.71 C889.74 466.95, 849.15 467.57, 781.77 466.49 M928.58 467.49 C894.65 469.58, 860.45 468.5, 783.22 467.39 M783.78 469.48 C782.48 450.64, 784.44 437.83, 783.49 428.63 M783.23 468.74 C782.89 453.04, 783 439.02, 783.54 428.45" class="line"/>
<text x="800" y="453" class="text">Open Schedule</text>
</svg>

