<svg xmlns="http://www.w3.org/2000/svg" width="960" height="650" viewBox="0 0 960 650" role="img">
<style>
svg{background:#fbfaf7;color:#1f2933;font-family:"Comic Sans MS","Bradley Hand","Segoe Print",cursive,sans-serif}
.line{fill:none;stroke:#1f2933;stroke-width:2.2;stroke-linecap:round;stroke-linejoin:round}
.thin{stroke-width:1.4}
.fill{fill:#fffdf8}
.soft{fill:#f3efe7}
.text{fill:#1f2933;font-size:16px}
.small{font-size:13px;fill:#52606d}
.title{font-size:18px;font-weight:700}
.button{fill:#fdfbf5}
.muted{stroke:#9aa5b1}
.chrome{fill:#f7f7f4}
.accent{fill:#e8f2ff}
.note{fill:#fff2cc;stroke:#d6b656}
.note-connector{fill:none;stroke:#ffd966;stroke-width:2;stroke-linecap:round;stroke-linejoin:round}
.badge-fill{fill:#fffdf8}
.nav{fill:#1f2933;stroke:none}
.nav-stroke{fill:none;stroke:#52606d;stroke-width:3.2;stroke-linecap:round;stroke-linejoin:round}
.fill-only{stroke:none}
</style>
<defs><filter id="wobble"><feTurbulence type="fractalNoise" baseFrequency="0.015" numOctaves="2" seed="8"/><feDisplacementMap in="SourceGraphic" scale="0.7"/></filter></defs>
<rect x="16" y="16" width="928" height="618" rx="6" class="fill fill-only"/>
<path d="M16.49 15.46 C238.58 19.38, 461.4 19.21, 944.51 15.49 M16.21 16.16 C270.42 15.75, 525.57 15.31, 944.18 16.2 M944.63 16.2 C945.84 143.65, 945.86 269.92, 944.24 633.64 M944.33 15.95 C942.27 176.15, 942.09 336.18, 943.65 634.24 M943.29 634.7 C649.99 631.82, 356.3 632.38, 15.33 634.66 M944.22 633.82 C597.37 633.54, 250.31 634.05, 15.83 633.82 M15.71 634.13 C17.62 401.42, 16.86 168.71, 15.35 16.53 M15.73 633.71 C16.39 481.03, 16.71 328.62, 16.17 16.16" class="line"/>
<circle cx="860" cy="40" r="10" class="fill fill-only"/>
<path d="M870.01 40.29 C870.06 41.39, 869.21 42.29, 869.03 43.72 M870.16 40.16 C869.73 41.23, 869.3 42.91, 869.15 43.65 M869.41 43.98 C868.91 44.16, 868.52 45.23, 866.76 47.18 M869.09 43.71 C868.44 44.75, 867.99 45.57, 867.09 46.89 M867.3 47.41 C866.51 47.78, 865.66 47.76, 863.64 49.3 M867.19 47.13 C866.32 47.48, 865.65 47.91, 863.84 49.21 M863.58 49.52 C862.86 49.26, 861.77 49.54, 859.74 50.1 M863.88 49.07 C862.82 49.5, 861.3 49.88, 859.94 49.93 M859.87 49.89 C858.5 49.87, 857.63 49.33, 855.81 49.11 M859.99 49.92 C859.11 49.78, 858.33 49.82, 856.1 49.29 M856.44 48.89 C855.1 48.7, 854.2 47.93, 852.91 47.41 M856.02 49.2 C854.9 48.33, 853.88 47.89, 852.76 47.13 M852.58 47.37 C852.65 46.3, 852 45.32, 850.85 43.85 M852.85 46.94 C852.25 46.25, 851.99 45.38, 850.69 43.74 M850.55 43.63 C850.36 42.21, 850.48 41.38, 850.2 40.08 M850.71 43.76 C850.52 42.58, 850.21 41.08, 850.08 40.04 M849.74 40.05 C850.32 38.49, 850.36 37.47, 850.8 35.93 M849.94 39.91 C850.29 38.7, 850.46 37.35, 850.82 36 M850.66 36.14 C851.23 35.13, 851.87 34.06, 852.97 32.9 M850.77 35.99 C851.63 35.04, 852.09 33.81, 852.86 32.76 M853.05 32.77 C853.68 32.31, 854.72 31.84, 856.15 31.06 M852.99 32.74 C854.02 32.26, 855.38 31.35, 856.08 30.64 M856.05 30.63 C856.97 30.96, 857.74 30.32, 860.15 30.19 M856.17 30.62 C857.07 30.44, 857.92 30.48, 860.02 30.09 M860.26 29.84 C861 30.07, 862.37 30.16, 863.84 30.62 M860.17 30 C860.9 30.27, 861.96 30.25, 863.77 30.93 M864.05 30.8 C864.59 31.6, 865.68 32.5, 867.27 32.9 M863.87 30.72 C865.16 31.69, 866.22 32.31, 866.93 32.95 M867.28 33.04 C867.79 33.74, 867.78 34.55, 869.54 36.36 M867.26 32.79 C867.45 33.91, 868.14 34.65, 869.08 36 M869.12 36.12 C869 37.21, 869.58 38.17, 870.14 40.39 M869.43 36.01 C869.45 37.34, 869.56 38.72, 869.97 39.91" class="line thin"/>
<circle cx="888" cy="40" r="10" class="fill fill-only"/>
<path d="M897.75 40.1 C897.64 40.97, 897.65 42.72, 897.33 43.9 M897.81 39.84 C897.6 40.92, 897.67 41.92, 897.34 43.76 M897.25 44.03 C896.97 44.23, 896.63 45.34, 895.1 46.71 M897.15 44.01 C896.77 44.77, 895.73 45.98, 894.9 46.98 M895.13 47.36 C893.73 47.48, 893.24 48.45, 891.81 49.01 M895.19 46.89 C893.97 47.67, 893.29 48.26, 891.95 49.28 M891.49 48.94 C891.09 49.8, 890 49.46, 887.83 49.91 M891.68 49.05 C890.52 49.62, 889.03 49.97, 888.18 50.17 M887.78 49.7 C887.36 49.9, 886.27 49.38, 884.28 48.89 M887.81 50.15 C886.64 49.57, 885.66 49.36, 884.16 49.13 M884.31 48.97 C883.27 48.11, 881.9 47.77, 881.23 46.69 M884.27 49.25 C883.14 48.31, 881.64 47.55, 880.92 47.18 M880.69 46.98 C880.19 46.36, 879.42 44.75, 879.08 43.93 M880.83 47.15 C880.31 46.28, 879.58 45.08, 878.73 43.64 M878.81 44.22 C878.73 42.79, 878.45 42.27, 878.26 39.62 M878.71 43.93 C878.65 42.93, 878.42 41.81, 877.94 39.91 M877.88 39.94 C878.36 38.36, 878.2 37.2, 879.1 35.92 M878.17 39.98 C878.33 38.97, 878.41 37.59, 878.95 36.24 M878.94 36.17 C879.32 35.26, 879.88 34.01, 880.84 32.73 M878.57 36.28 C879.34 35.53, 879.77 34.67, 880.75 33.04 M880.79 33.06 C881.48 32.29, 882.31 32.22, 883.88 30.86 M880.79 33.03 C881.86 32.43, 882.53 31.76, 884.09 30.8 M884.54 30.53 C885.83 30.83, 886.68 29.83, 888.08 29.79 M884.13 30.69 C885.53 30.53, 886.65 30.32, 888.12 29.93 M888.05 29.86 C888.92 30.3, 889.97 30.27, 891.96 30.87 M888.08 29.84 C889.54 30.38, 890.84 30.67, 891.68 30.59 M892.09 30.7 C892.67 31.72, 893.96 31.91, 894.93 32.75 M891.99 30.59 C893.25 31.64, 894.37 32.32, 895.07 33.04 M894.88 32.74 C895.58 33.77, 896.09 34.46, 897.27 36.25 M894.93 32.99 C895.53 33.44, 895.77 34.13, 897.43 35.99 M897.39 35.9 C897.14 37.65, 897.75 38.59, 897.71 39.88 M897.33 36.12 C897.35 37.21, 897.56 38.43, 898.1 40.12" class="line thin"/>
<circle cx="916" cy="40" r="10" class="accent fill-only"/>
<path d="M926.27 39.9 C925.93 41.33, 925.23 42.37, 925.63 44.08 M925.85 39.91 C925.78 41.38, 925.41 42.47, 925.15 43.87 M925.09 44.07 C925.03 44.3, 923.97 45.44, 923.44 47.02 M925.21 43.93 C924.64 44.8, 923.81 46, 923.11 47.06 M922.96 47.32 C922.42 47.59, 921.38 48.33, 919.99 49.5 M923.19 47.04 C922.02 47.8, 920.93 48.56, 919.66 49.35 M920.18 49.15 C918.54 49.56, 917.46 49.38, 915.92 49.73 M919.88 49.43 C919 49.2, 917.92 49.75, 916.03 50.01 M915.7 50.29 C914.68 49.72, 914.18 49.84, 911.96 49.45 M916.02 49.98 C914.56 49.75, 913 49.29, 912.23 49.36 M912.17 49.05 C910.7 48.37, 909.65 47.68, 908.77 46.75 M912.12 49.3 C911.03 48.34, 909.82 47.65, 909.07 47.22 M908.8 47.37 C908.51 45.6, 907.63 44.93, 906.53 44.02 M908.81 46.98 C908.42 45.88, 907.63 45.13, 906.77 43.92 M907.07 44.02 C906.11 42.6, 906.06 41.64, 906.32 39.95 M906.71 43.71 C906.47 42.9, 906.32 42.15, 906.18 40.18 M906.02 39.82 C906.26 38.99, 906.52 38.47, 906.62 35.92 M906.01 40.05 C906.37 38.85, 906.36 37.82, 906.69 36.08 M906.45 36.19 C907.42 35.4, 907.89 34.75, 908.71 32.55 M906.77 36.17 C907.54 35.38, 907.98 34.24, 909.04 32.92 M909.31 32.57 C909.88 32.56, 911.15 31.67, 912.4 30.66 M908.98 32.93 C909.92 32.1, 911.34 31.25, 912.11 30.57 M912.25 30.43 C913.16 30.86, 914.1 30.44, 916.02 30.18 M912.09 30.77 C913.6 30.54, 915.38 30.09, 915.83 30.16 M915.83 29.87 C916.85 30.45, 918.36 30.31, 920.08 31.12 M915.98 30.07 C917.03 30.41, 918.21 30.46, 919.97 30.64 M920.14 30.59 C920.76 31.77, 922.23 32.04, 923.36 32.6 M919.72 30.85 C920.69 31.16, 921.22 31.84, 923.21 32.74 M923.26 33.23 C924.15 33.79, 924.4 35.14, 924.99 36.15 M922.99 32.8 C923.71 34.01, 924.71 35.29, 925.39 35.99 M924.88 36.46 C925.2 37.32, 925.84 39.02, 926.06 40.14 M925.24 36.22 C925.58 37.07, 925.48 38.13, 925.84 39.95" class="line thin"/>
<text x="38" y="47" class="text">Desktop Workbench</text>
<path d="M16.01 63.47 C370.54 63.11, 726.24 62.46, 943.83 63.35 M15.8 63.96 C217.12 66.55, 419.1 66.48, 944.21 64.27" class="line thin"/>
<rect x="32" y="72" width="896" height="34" rx="4" class="chrome fill-only"/>
<path d="M31.53 72.55 C227.67 70.66, 422.58 71.33, 928.37 71.67 M31.88 72.09 C303.27 69.03, 574.35 69.24, 927.85 71.75 M929.39 73.55 C929.39 78.96, 927.06 84.95, 929.25 105 M928.43 71.65 C928.02 86.01, 928.21 98.97, 928.28 106.69 M928.62 106.29 C688.04 105.85, 447.14 106.09, 31.51 105.4 M928.23 105.79 C719.79 109.13, 511.25 108.7, 32.09 105.76 M32.78 107.48 C31.48 90.99, 33.44 80.52, 32.49 72.63 M32.23 106.74 C31.91 93.27, 32.02 81.49, 32.54 72.45" class="line thin muted"/>
<text x="46" y="95" class="text small">File</text>
<text x="108" y="95" class="text small">Edit</text>
<text x="170" y="95" class="text small">View</text>
<rect x="32" y="118" width="264" height="500" rx="6" class="fill fill-only"/>
<path d="M32.98 118.37 C98.08 117.5, 164.53 118.6, 294.97 118 M31.92 118.42 C133.92 117.2, 237.69 116.74, 296.43 117.9 M296.25 118.71 C297.56 223.14, 296.73 327.81, 295.69 618.17 M296.28 117.7 C296.54 225.67, 296.38 332.85, 295.77 617.71 M296.61 618.4 C195.13 616.26, 96.47 616.63, 31.67 618.59 M296.46 618.15 C220.62 619.04, 145.75 618.38, 32.56 617.78 M32.14 617.53 C32.43 501.08, 32.08 383.77, 32.36 117.91 M31.73 618.27 C33.18 499.26, 33.03 380.57, 31.94 117.89" class="line"/>
<rect x="46" y="105" width="88" height="24" class="fill fill-only"/>
<text x="54" y="124" class="text">Filters</text>
<rect x="50" y="136" width="228" height="72" rx="6" class="fill fill-only"/>
<path d="M50.03 135.63 C116.43 136.65, 182.23 137.58, 278.07 136.69 M50.08 136.73 C112.6 134.75, 174.97 134.83, 277.71 136.31 M277.88 134.38 C275.67 151.77, 277.43 166.12, 278.8 206.25 M277.19 136.63 C277.4 153.65, 278.2 169.93, 278.38 207.64 M277.99 208.25 C212.63 209.13, 144.8 209.39, 50.33 207.48 M278.5 207.23 C201.9 208.12, 124.54 207.62, 49.49 208.04 M49.94 207.78 C49.4 187.68, 49.3 168.09, 51.33 134.91 M50.23 208.61 C49.45 186.97, 50.36 165.26, 49.14 136.82" class="line"/>
<text x="68" y="164" class="text">List: Saved Filters</text>
<rect x="50" y="212" width="18" height="18" rx="3" class="fill fill-only"/>
<path d="M48.84 210.68 C54.5 213.64, 60.63 210.84, 69.45 213.63 M50.29 211.38 C55.76 212.01, 62.22 212.79, 68.57 212.86 M67.13 210.59 C66.4 216.77, 68.41 219.89, 66.77 229.67 M67.46 212.23 C68.74 216.86, 67.16 222.01, 67.53 230.02 M67.21 230.09 C59.53 229.17, 53.31 229.32, 51.2 231.63 M68.59 229.81 C60.84 230.72, 53.69 230.38, 49.89 230.38 M49.52 230.73 C51.26 222.77, 48.34 217.96, 51.75 213.66 M49.33 230.55 C49.52 222.77, 49.94 217.64, 50.24 212.11" class="line"/>
<text x="78" y="228" class="text">Critical only</text>
<rect x="310" y="118" width="618" height="500" rx="6" class="fill fill-only"/>
<path d="M310.5 118.55 C532.88 118.56, 755.92 118.76, 927.69 117.54 M310.19 117.88 C461.63 118.38, 613.22 118.25, 927.87 117.82 M927.35 117.52 C928.14 224.74, 929.04 330.72, 928.14 618.43 M927.9 117.93 C928.09 264.35, 927.94 410.75, 928.19 618.16 M927.37 617.95 C736.95 617.83, 545.97 617.82, 309.36 618.11 M928.24 618.21 C780.31 618.87, 631.79 618.83, 310.15 618.28 M309.64 618.67 C309.22 436.69, 309.8 254.15, 309.43 118.32 M310.09 618.19 C309.48 501.42, 310.17 384.64, 309.82 117.76" class="line"/>
<rect x="324" y="105" width="164" height="24" class="fill fill-only"/>
<text x="332" y="124" class="text">Equipment Detail</text>
<text x="328" y="154" class="text">Equipment Name</text>
<rect x="328" y="164" width="199" height="38" rx="8" class="fill fill-only"/>
<path d="M328.05 164.48 C405.23 165.13, 485.24 165.33, 527.59 163.66 M328.68 164.02 C393.17 164, 459.21 164.36, 527.6 164.05 M528.22 163.02 C525.5 173.81, 528.01 181.52, 525.32 200.91 M527.02 163.41 C527.03 175.69, 526.07 187.35, 526.64 202.77 M528.26 201.67 C481.9 205.01, 438.52 204.85, 327.22 200.93 M527.6 201.42 C469.09 201.27, 410.57 201.42, 328.86 201.24 M326.69 201.03 C329.18 194.04, 327.81 184.71, 326.99 163.94 M327.33 202.42 C329.1 190.89, 328.51 178.47, 328.65 164.49" class="line"/>
<text x="619" y="154" class="text">Notes</text>
<rect x="619" y="164" width="180" height="93" rx="8" class="fill fill-only"/>
<path d="M617.85 163.58 C660.8 166.33, 704.15 166.24, 797.37 164.47 M619.87 164.34 C658.22 164.96, 697.49 164.21, 798.72 164.54 M799.46 163.23 C797.74 182.38, 800.49 202.03, 798.89 257.33 M799.3 164.81 C798.5 195.4, 798.75 228.41, 799.59 256.34 M799.48 256.46 C739.99 255.82, 680.61 255.51, 619.03 258.18 M799.6 257.13 C736.53 255.48, 674.93 255.87, 618.55 256.57 M617.27 256.98 C618.1 232.57, 617.51 212.06, 618.41 163.08 M619.24 257.35 C619.58 223.86, 618.49 188.59, 618.95 163.78" class="line"/>
<text x="328" y="285" class="text">Status</text>
<rect x="328" y="295" width="160" height="38" rx="8" class="fill fill-only"/>
<path d="M329.25 293.69 C372.54 294.87, 413.82 298.08, 487.74 296.29 M327.27 295.66 C375.71 296.83, 424.46 296.76, 488.63 294.24 M487.7 294.45 C487.34 302.01, 486.73 310.07, 489.47 334.75 M488.58 295.4 C487.31 309.97, 486.97 322.82, 487.74 332.72 M487.7 332.25 C448.1 334.49, 409.37 334.02, 328.84 332.82 M488.61 333.84 C425.13 333.78, 361.02 334.41, 328.04 332.89 M329.45 333.93 C329.13 323.13, 329.31 311.67, 327.83 293.22 M327.34 333.29 C328.04 323.57, 328.25 314.81, 327.25 295.87" class="line"/>
<polygon points="460,311 472,311 466,319" class="nav"/>
<circle cx="628" cy="280" r="9" class="fill fill-only"/>
<path d="M637.01 280.27 C636.79 280.97, 636.38 281.88, 636.53 283.15 M636.9 279.84 C636.81 281.25, 636.64 282.7, 636.27 283.39 M636.11 283.38 C635.81 283.91, 635.32 284.55, 634.25 286.28 M636.48 283.44 C635.36 284.72, 634.76 285.91, 634.5 286.38 M634.15 286.18 C633.39 287.38, 632.26 287.94, 631.77 288.02 M634.48 286.31 C633.54 286.82, 632.77 287.48, 631.55 288.36 M631.65 287.98 C630.21 288.59, 629.24 288.87, 628.05 289.19 M631.49 288.36 C630.46 288.47, 629.39 288.57, 628.07 289.03 M628.34 288.97 C626.94 288.58, 626.08 288.53, 624.31 287.97 M628.15 288.89 C626.98 288.73, 625.85 288.54, 624.5 288.38 M624.74 288.16 C624.03 288.06, 622.99 287.48, 621.6 286.59 M624.57 288.49 C623.75 287.92, 623.3 287.32, 621.72 286.22 M621.77 286.63 C620.92 285.01, 620.32 284.06, 619.44 283.66 M621.69 286.48 C621.14 285.65, 620.6 284.93, 619.69 283.29 M619.5 283.29 C619.42 282.68, 619.32 281.23, 619.1 280.1 M619.62 283.43 C619.57 282.33, 619.24 281.22, 618.91 280.09 M618.9 280.18 C619.22 279.31, 619.35 278.3, 619.46 276.3 M619 279.95 C619.15 278.63, 619.57 277.39, 619.76 276.47 M619.87 276.77 C620.23 275.35, 620.99 274.91, 621.67 273.82 M619.71 276.68 C620.19 275.82, 620.58 275.28, 621.51 273.61 M621.75 273.82 C622.79 273.33, 623.62 272.42, 624.47 271.87 M621.64 273.79 C622.83 272.8, 623.85 272.27, 624.64 271.55 M624.81 271.91 C625.68 271.7, 626.54 271.06, 628.15 271.1 M624.48 271.66 C625.43 271.45, 626.05 271.32, 628.04 271.08 M628.03 271.02 C628.83 270.95, 630.17 271.73, 631.34 271.47 M628.17 271.02 C628.84 271.1, 629.78 271.22, 631.42 271.7 M631.42 272 C632.4 272.06, 633.29 273, 634.3 273.39 M631.39 271.64 C632.69 272.45, 633.83 273.12, 634.33 273.6 M634.44 273.36 C634.6 274.26, 635.17 274.83, 636.42 276.27 M634.49 273.56 C634.9 274.63, 635.62 275.41, 636.46 276.68 M636.28 276.24 C636.57 277.41, 636.71 278.85, 636.72 279.74 M636.2 276.5 C636.63 277.51, 636.56 278.39, 637 280.15" class="line"/>
<text x="647" y="287" class="text">Manual mode</text>
<rect x="328" y="402" width="48" height="24" rx="12" class="soft fill-only"/>
<path d="M326.86 402.49 C345.8 402.3, 361.49 401.31, 374.88 401.31 M327.66 401.5 C340.54 401.82, 354.28 401.33, 376.66 402.23 M377.79 401.87 C375.55 406.79, 375.44 412.18, 377.01 426.99 M375.34 401.59 C376.48 407.74, 374.97 412.85, 375.84 426.47 M377.75 424.83 C361.97 425.67, 352.18 424.89, 326.86 426.72 M376.62 426.45 C362.21 425.84, 346.55 425.17, 327.22 426.55 M328.62 425.23 C329.19 415.91, 327.32 407.63, 328.67 402.11 M327.34 426.16 C327.76 417.47, 326.97 407.99, 327.65 401.45" class="line"/>
<circle cx="342" cy="414" r="8" class="fill fill-only"/>
<path d="M350.22 413.93 C349.71 415.44, 349.47 416.36, 349.43 417.08 M349.98 413.97 C349.87 415.23, 349.46 416.05, 349.35 417.19 M349.57 417.08 C348.99 417.62, 348.64 418.24, 347.48 419.45 M349.32 416.92 C349 417.75, 348.51 418.28, 347.79 419.8 M347.83 419.42 C346.75 420.41, 345.59 420.89, 345 421.28 M347.76 419.55 C346.71 420.32, 345.69 420.85, 345.01 421.54 M345.1 421.42 C344.31 421.76, 343.45 421.51, 342.19 421.87 M345.1 421.41 C344.33 421.6, 343.73 421.52, 342.13 422.09 M342.16 422.29 C340.59 422.01, 339.52 421.75, 338.84 421.36 M342.15 421.94 C340.95 421.86, 339.93 421.73, 339 421.51 M338.88 421.38 C338.12 420.95, 337.7 420.5, 336.2 419.95 M339.02 421.31 C338.32 421.05, 337.46 420.63, 336.34 419.6 M336.64 419.89 C335.94 419.04, 335.57 418.34, 334.76 416.77 M336.36 419.79 C335.73 418.76, 335.45 418.22, 334.68 417.07 M334.86 417.24 C334.22 416.07, 334 415.31, 334.18 413.99 M334.55 417 C334.35 416.03, 334.06 414.72, 334 413.88 M334.14 413.97 C334.14 413.16, 334.45 412.66, 334.89 410.7 M334.06 414.06 C334.2 412.91, 334.43 411.74, 334.57 410.92 M334.61 411.16 C335.25 410.09, 335.15 410.02, 336.17 408.23 M334.64 410.88 C335.33 410.08, 336.01 408.82, 336.38 408.45 M336.65 408.35 C336.9 407.6, 337.82 407.08, 339.06 406.45 M336.34 408.32 C337.36 407.79, 338.31 407.05, 339.04 406.75 M338.7 406.65 C340.1 406.59, 340.99 406.21, 342.04 406.07 M338.81 406.7 C340.12 406.22, 341.42 406.03, 341.88 406.12 M341.69 406.05 C343.25 406.26, 343.94 406.14, 345.16 406.83 M342 406.07 C342.85 406.25, 343.78 406.41, 345.19 406.71 M345.11 406.73 C346.05 407.08, 346.51 407.42, 347.67 408.51 M345.21 406.67 C345.79 406.92, 346.38 407.56, 347.54 408.46 M347.71 408.25 C348.15 409.53, 348.87 409.85, 349.67 411.14 M347.56 408.28 C348 408.76, 348.53 409.37, 349.46 411.04 M349.17 410.93 C349.66 411.79, 349.71 413.06, 349.69 414.19 M349.46 411.06 C349.59 412.18, 349.79 413.31, 349.9 413.85" class="line thin"/>
<text x="388" y="419" class="text">Enabled</text>
<text x="619" y="416" class="text">Priority</text>
<path d="M619.05 438.97 C675.18 438.48, 730.6 440.09, 883.29 440.75 M619.04 440.11 C682.91 439.2, 747.91 439.9, 882.55 439.53" class="line muted"/>
<circle cx="760" cy="440" r="9" class="fill fill-only"/>
<path d="M768.78 440.27 C768.7 440.87, 768.69 441.35, 768.2 443.79 M769.05 440.09 C768.83 441.18, 768.43 442.27, 768.28 443.43 M768.22 443.54 C767.93 444.23, 767.62 444.99, 766.08 446.69 M768.35 443.48 C767.69 444.26, 767.17 445.21, 766.54 446.33 M766.25 446.01 C765.27 447.04, 763.78 447.56, 763.7 448.37 M766.49 446.52 C765.61 446.96, 765.02 447.46, 763.58 448.26 M763.32 448.02 C762.3 448.36, 761.33 449.06, 759.67 449.22 M763.49 448.31 C762.09 448.49, 761.12 448.68, 759.88 448.83 M760.03 448.99 C759.29 448.88, 758.41 448.47, 756.57 448.59 M759.85 448.99 C759.02 448.95, 757.85 448.49, 756.39 448.15 M756.25 448.45 C755.98 447.57, 755.37 447.14, 753.36 446.1 M756.38 448.32 C755.59 447.53, 754.8 447.19, 753.56 446.39 M753.46 446.62 C753 445.03, 752.39 444.53, 751.57 443.26 M753.62 446.21 C752.81 445.41, 752.37 444.2, 751.83 443.27 M751.74 443.3 C751.72 442.68, 751.33 441.7, 751.31 439.88 M751.62 443.33 C751.7 442.56, 751.51 441.76, 751.08 439.99 M750.71 439.75 C751.18 438.83, 751.16 437.33, 751.84 436.29 M751.13 439.84 C751.29 438.91, 751.4 437.53, 751.53 436.6 M751.5 436.85 C752.27 435.29, 753.09 435.01, 753.9 433.89 M751.72 436.66 C752.35 435.54, 753.11 434.56, 753.5 433.54 M753.52 433.46 C754.45 433.03, 755.68 432.07, 756.21 431.84 M753.62 433.79 C754.73 432.88, 755.49 432.44, 756.7 431.78 M756.46 431.55 C758.04 431.58, 759.18 431.34, 759.93 431.07 M756.69 431.57 C757.67 431.53, 758.94 431.38, 760.05 430.85 M759.97 431.08 C761.28 430.94, 762.89 431.3, 763.77 431.68 M760.17 431.14 C761.43 431.4, 762.59 431.65, 763.42 431.54 M763.58 431.63 C764.04 432.36, 764.9 432.88, 766.46 433.55 M763.48 431.52 C764.39 432.3, 765.52 433.11, 766.48 433.59 M766.4 433.7 C766.79 434.4, 767.46 435.36, 768.13 436.59 M766.36 433.58 C766.99 434.56, 767.5 435.37, 768.33 436.66 M768.54 436.85 C768.67 437.63, 768.63 438.33, 769.28 440 M768.22 436.54 C768.37 437.71, 768.76 438.69, 769.13 439.87" class="line"/>
<rect x="328" y="530" width="582" height="70" rx="6" class="soft fill-only"/>
<path d="M328.51 530.2 C491.88 530.26, 654.39 529.39, 910.31 529.59 M328.18 530.31 C453.46 530.82, 579.53 530.28, 910.29 530.16 M908.77 530.72 C910.48 546.44, 911.34 558.98, 910.1 599.47 M910.45 529.77 C909.8 552.29, 909.53 575.13, 910.05 600.18 M909.46 600.64 C733.28 601.1, 557.81 600.54, 327.4 599.56 M910.25 599.87 C732.04 598.49, 555 597.9, 327.75 600.03 M326.95 599.43 C329.93 577.18, 327.56 552.15, 326.75 530.27 M327.34 599.9 C328.56 584.62, 327.58 568.64, 328.46 530.2" class="line"/>
<path d="M340.03 541.84 C516.08 556.13, 693.34 571.14, 897.41 587.91 M340.26 541.72 C508.39 556.69, 676.38 571.02, 897.93 588.36" class="line thin muted"/>
<path d="M897.55 541.48 C701.87 557.6, 504.88 574.13, 339.96 588.24 M898.33 541.85 C681.94 558.45, 466.39 576.27, 340.3 587.84" class="line thin muted"/>
<text x="555" y="570" class="text">Equipment Photo</text>
</svg>

