<svg xmlns="http://www.w3.org/2000/svg" width="960" height="640" viewBox="0 0 960 640" role="img">
<style>
svg{background:#fbfaf7;color:#1f2933;font-family:"Comic Sans MS","Bradley Hand","Segoe Print",cursive,sans-serif}
.line{fill:none;stroke:#1f2933;stroke-width:2.2;stroke-linecap:round;stroke-linejoin:round}
.thin{stroke-width:1.4}
.fill{fill:#fffdf8}
.soft{fill:#f3efe7}
.text{fill:#1f2933;font-size:16px}
.small{font-size:13px;fill:#52606d}
.title{font-size:18px;font-weight:700}
.button{fill:#fdfbf5}
.muted{stroke:#9aa5b1}
.chrome{fill:#f7f7f4}
.accent{fill:#e8f2ff}
.nav{fill:#1f2933;stroke:none}
.nav-stroke{fill:none;stroke:#52606d;stroke-width:3.2;stroke-linecap:round;stroke-linejoin:round}
.fill-only{stroke:none}
</style>
<defs><filter id="wobble"><feTurbulence type="fractalNoise" baseFrequency="0.015" numOctaves="2" seed="8"/><feDisplacementMap in="SourceGraphic" scale="0.7"/></filter></defs>
<rect x="16" y="16" width="928" height="608" rx="6" class="fill fill-only"/>
<path d="M16.49 15.46 C238.58 19.38, 461.4 19.21, 944.51 15.49 M16.21 16.16 C270.42 15.75, 525.57 15.31, 944.18 16.2 M944.63 16.2 C945.81 141.6, 945.83 265.81, 944.24 623.64 M944.33 15.95 C942.3 173.56, 942.11 331, 943.65 624.24 M943.29 624.7 C649.99 621.82, 356.3 622.38, 15.33 624.66 M944.22 623.82 C597.37 623.54, 250.31 624.05, 15.83 623.82 M15.71 624.13 C17.6 395.19, 16.84 166.24, 15.35 16.53 M15.73 623.71 C16.37 473.5, 16.7 323.56, 16.17 16.16" class="line"/>
<circle cx="860" cy="40" r="10" class="fill fill-only"/>
<path d="M870.01 40.29 C870.06 41.39, 869.21 42.29, 869.03 43.72 M870.16 40.16 C869.73 41.23, 869.3 42.91, 869.15 43.65 M869.41 43.98 C868.91 44.16, 868.52 45.23, 866.76 47.18 M869.09 43.71 C868.44 44.75, 867.99 45.57, 867.09 46.89 M867.3 47.41 C866.51 47.78, 865.66 47.76, 863.64 49.3 M867.19 47.13 C866.32 47.48, 865.65 47.91, 863.84 49.21 M863.58 49.52 C862.86 49.26, 861.77 49.54, 859.74 50.1 M863.88 49.07 C862.82 49.5, 861.3 49.88, 859.94 49.93 M859.87 49.89 C858.5 49.87, 857.63 49.33, 855.81 49.11 M859.99 49.92 C859.11 49.78, 858.33 49.82, 856.1 49.29 M856.44 48.89 C855.1 48.7, 854.2 47.93, 852.91 47.41 M856.02 49.2 C854.9 48.33, 853.88 47.89, 852.76 47.13 M852.58 47.37 C852.65 46.3, 852 45.32, 850.85 43.85 M852.85 46.94 C852.25 46.25, 851.99 45.38, 850.69 43.74 M850.55 43.63 C850.36 42.21, 850.48 41.38, 850.2 40.08 M850.71 43.76 C850.52 42.58, 850.21 41.08, 850.08 40.04 M849.74 40.05 C850.32 38.49, 850.36 37.47, 850.8 35.93 M849.94 39.91 C850.29 38.7, 850.46 37.35, 850.82 36 M850.66 36.14 C851.23 35.13, 851.87 34.06, 852.97 32.9 M850.77 35.99 C851.63 35.04, 852.09 33.81, 852.86 32.76 M853.05 32.77 C853.68 32.31, 854.72 31.84, 856.15 31.06 M852.99 32.74 C854.02 32.26, 855.38 31.35, 856.08 30.64 M856.05 30.63 C856.97 30.96, 857.74 30.32, 860.15 30.19 M856.17 30.62 C857.07 30.44, 857.92 30.48, 860.02 30.09 M860.26 29.84 C861 30.07, 862.37 30.16, 863.84 30.62 M860.17 30 C860.9 30.27, 861.96 30.25, 863.77 30.93 M864.05 30.8 C864.59 31.6, 865.68 32.5, 867.27 32.9 M863.87 30.72 C865.16 31.69, 866.22 32.31, 866.93 32.95 M867.28 33.04 C867.79 33.74, 867.78 34.55, 869.54 36.36 M867.26 32.79 C867.45 33.91, 868.14 34.65, 869.08 36 M869.12 36.12 C869 37.21, 869.58 38.17, 870.14 40.39 M869.43 36.01 C869.45 37.34, 869.56 38.72, 869.97 39.91" class="line thin"/>
<circle cx="888" cy="40" r="10" class="fill fill-only"/>
<path d="M897.75 40.1 C897.64 40.97, 897.65 42.72, 897.33 43.9 M897.81 39.84 C897.6 40.92, 897.67 41.92, 897.34 43.76 M897.25 44.03 C896.97 44.23, 896.63 45.34, 895.1 46.71 M897.15 44.01 C896.77 44.77, 895.73 45.98, 894.9 46.98 M895.13 47.36 C893.73 47.48, 893.24 48.45, 891.81 49.01 M895.19 46.89 C893.97 47.67, 893.29 48.26, 891.95 49.28 M891.49 48.94 C891.09 49.8, 890 49.46, 887.83 49.91 M891.68 49.05 C890.52 49.62, 889.03 49.97, 888.18 50.17 M887.78 49.7 C887.36 49.9, 886.27 49.38, 884.28 48.89 M887.81 50.15 C886.64 49.57, 885.66 49.36, 884.16 49.13 M884.31 48.97 C883.27 48.11, 881.9 47.77, 881.23 46.69 M884.27 49.25 C883.14 48.31, 881.64 47.55, 880.92 47.18 M880.69 46.98 C880.19 46.36, 879.42 44.75, 879.08 43.93 M880.83 47.15 C880.31 46.28, 879.58 45.08, 878.73 43.64 M878.81 44.22 C878.73 42.79, 878.45 42.27, 878.26 39.62 M878.71 43.93 C878.65 42.93, 878.42 41.81, 877.94 39.91 M877.88 39.94 C878.36 38.36, 878.2 37.2, 879.1 35.92 M878.17 39.98 C878.33 38.97, 878.41 37.59, 878.95 36.24 M878.94 36.17 C879.32 35.26, 879.88 34.01, 880.84 32.73 M878.57 36.28 C879.34 35.53, 879.77 34.67, 880.75 33.04 M880.79 33.06 C881.48 32.29, 882.31 32.22, 883.88 30.86 M880.79 33.03 C881.86 32.43, 882.53 31.76, 884.09 30.8 M884.54 30.53 C885.83 30.83, 886.68 29.83, 888.08 29.79 M884.13 30.69 C885.53 30.53, 886.65 30.32, 888.12 29.93 M888.05 29.86 C888.92 30.3, 889.97 30.27, 891.96 30.87 M888.08 29.84 C889.54 30.38, 890.84 30.67, 891.68 30.59 M892.09 30.7 C892.67 31.72, 893.96 31.91, 894.93 32.75 M891.99 30.59 C893.25 31.64, 894.37 32.32, 895.07 33.04 M894.88 32.74 C895.58 33.77, 896.09 34.46, 897.27 36.25 M894.93 32.99 C895.53 33.44, 895.77 34.13, 897.43 35.99 M897.39 35.9 C897.14 37.65, 897.75 38.59, 897.71 39.88 M897.33 36.12 C897.35 37.21, 897.56 38.43, 898.1 40.12" class="line thin"/>
<circle cx="916" cy="40" r="10" class="accent fill-only"/>
<path d="M926.27 39.9 C925.93 41.33, 925.23 42.37, 925.63 44.08 M925.85 39.91 C925.78 41.38, 925.41 42.47, 925.15 43.87 M925.09 44.07 C925.03 44.3, 923.97 45.44, 923.44 47.02 M925.21 43.93 C924.64 44.8, 923.81 46, 923.11 47.06 M922.96 47.32 C922.42 47.59, 921.38 48.33, 919.99 49.5 M923.19 47.04 C922.02 47.8, 920.93 48.56, 919.66 49.35 M920.18 49.15 C918.54 49.56, 917.46 49.38, 915.92 49.73 M919.88 49.43 C919 49.2, 917.92 49.75, 916.03 50.01 M915.7 50.29 C914.68 49.72, 914.18 49.84, 911.96 49.45 M916.02 49.98 C914.56 49.75, 913 49.29, 912.23 49.36 M912.17 49.05 C910.7 48.37, 909.65 47.68, 908.77 46.75 M912.12 49.3 C911.03 48.34, 909.82 47.65, 909.07 47.22 M908.8 47.37 C908.51 45.6, 907.63 44.93, 906.53 44.02 M908.81 46.98 C908.42 45.88, 907.63 45.13, 906.77 43.92 M907.07 44.02 C906.11 42.6, 906.06 41.64, 906.32 39.95 M906.71 43.71 C906.47 42.9, 906.32 42.15, 906.18 40.18 M906.02 39.82 C906.26 38.99, 906.52 38.47, 906.62 35.92 M906.01 40.05 C906.37 38.85, 906.36 37.82, 906.69 36.08 M906.45 36.19 C907.42 35.4, 907.89 34.75, 908.71 32.55 M906.77 36.17 C907.54 35.38, 907.98 34.24, 909.04 32.92 M909.31 32.57 C909.88 32.56, 911.15 31.67, 912.4 30.66 M908.98 32.93 C909.92 32.1, 911.34 31.25, 912.11 30.57 M912.25 30.43 C913.16 30.86, 914.1 30.44, 916.02 30.18 M912.09 30.77 C913.6 30.54, 915.38 30.09, 915.83 30.16 M915.83 29.87 C916.85 30.45, 918.36 30.31, 920.08 31.12 M915.98 30.07 C917.03 30.41, 918.21 30.46, 919.97 30.64 M920.14 30.59 C920.76 31.77, 922.23 32.04, 923.36 32.6 M919.72 30.85 C920.69 31.16, 921.22 31.84, 923.21 32.74 M923.26 33.23 C924.15 33.79, 924.4 35.14, 924.99 36.15 M922.99 32.8 C923.71 34.01, 924.71 35.29, 925.39 35.99 M924.88 36.46 C925.2 37.32, 925.84 39.02, 926.06 40.14 M925.24 36.22 C925.58 37.07, 925.48 38.13, 925.84 39.95" class="line thin"/>
<text x="38" y="47" class="text">SVG After</text>
<path d="M16.01 63.47 C370.54 63.11, 726.24 62.46, 943.83 63.35 M15.8 63.96 C217.12 66.55, 419.1 66.48, 944.21 64.27" class="line thin"/>
<text x="32" y="96" class="text">Source wins</text>
</svg>
