<svg xmlns="http://www.w3.org/2000/svg" width="1180" height="640" viewBox="0 0 1180 640" role="img">
<style>
svg{background:#fbfaf7;color:#1f2933;font-family:"Comic Sans MS","Bradley Hand","Segoe Print",cursive,sans-serif}
.line{fill:none;stroke:#1f2933;stroke-width:2.2;stroke-linecap:round;stroke-linejoin:round}
.thin{stroke-width:1.4}
.fill{fill:#fffdf8}
.soft{fill:#f3efe7}
.text{fill:#1f2933;font-size:16px}
.small{font-size:13px;fill:#52606d}
.title{font-size:18px;font-weight:700}
.button{fill:#fdfbf5}
.muted{stroke:#9aa5b1}
.chrome{fill:#f7f7f4}
.accent{fill:#e8f2ff}
.note{fill:#fff2cc;stroke:#d6b656}
.note-connector{fill:none;stroke:#ffd966;stroke-width:2;stroke-linecap:round;stroke-linejoin:round}
.badge-fill{fill:#fffdf8}
.nav{fill:#1f2933;stroke:none}
.nav-stroke{fill:none;stroke:#52606d;stroke-width:3.2;stroke-linecap:round;stroke-linejoin:round}
.fill-only{stroke:none}
</style>
<defs><filter id="wobble"><feTurbulence type="fractalNoise" baseFrequency="0.015" numOctaves="2" seed="8"/><feDisplacementMap in="SourceGraphic" scale="0.7"/></filter></defs>
<rect x="16" y="16" width="928" height="608" rx="6" class="fill fill-only"/>
<path d="M16.49 15.46 C238.58 19.38, 461.4 19.21, 944.51 15.49 M16.21 16.16 C270.42 15.75, 525.57 15.31, 944.18 16.2 M944.63 16.2 C945.81 141.6, 945.83 265.81, 944.24 623.64 M944.33 15.95 C942.3 173.56, 942.11 331, 943.65 624.24 M943.29 624.7 C649.99 621.82, 356.3 622.38, 15.33 624.66 M944.22 623.82 C597.37 623.54, 250.31 624.05, 15.83 623.82 M15.71 624.13 C17.6 395.19, 16.84 166.24, 15.35 16.53 M15.73 623.71 C16.37 473.5, 16.7 323.56, 16.17 16.16" class="line"/>
<circle cx="916" cy="46" r="11" class="accent fill-only"/>
<path d="M927.01 46.32 C927.06 47.53, 926.13 48.52, 925.94 50.1 M927.17 46.17 C926.71 47.35, 926.23 49.2, 926.06 50.02 M926.36 50.38 C925.8 50.57, 925.37 51.76, 923.44 53.9 M926 50.08 C925.29 51.23, 924.79 52.13, 923.79 53.58 M924.03 54.15 C923.16 54.56, 922.23 54.53, 920 56.23 M923.91 53.84 C922.95 54.23, 922.22 54.7, 920.23 56.13 M919.93 56.47 C919.14 56.18, 917.95 56.5, 915.72 57.11 M920.26 55.97 C919.11 56.45, 917.43 56.87, 915.94 56.93 M915.86 56.88 C914.35 56.85, 913.39 56.27, 911.39 56.02 M915.99 56.91 C915.02 56.76, 914.16 56.8, 911.71 56.22 M912.09 55.78 C910.6 55.57, 909.62 54.72, 908.2 54.15 M911.63 56.12 C910.39 55.16, 909.27 54.68, 908.04 53.84 M907.84 54.11 C907.92 52.93, 907.2 51.85, 905.93 50.23 M908.14 53.63 C907.47 52.87, 907.18 51.92, 905.76 50.11 M905.6 49.99 C905.4 48.43, 905.53 47.51, 905.22 46.08 M905.78 50.14 C905.57 48.84, 905.23 47.19, 905.09 46.04 M904.71 46.06 C905.35 44.34, 905.39 43.22, 905.88 41.52 M904.93 45.9 C905.32 44.56, 905.5 43.09, 905.9 41.6 M905.72 41.76 C906.35 40.64, 907.06 39.46, 908.27 38.19 M905.84 41.59 C906.8 40.54, 907.3 39.19, 908.14 38.04 M908.36 38.05 C909.05 37.54, 910.2 37.03, 911.76 36.17 M908.29 38.01 C909.42 37.48, 910.92 36.48, 911.68 35.71 M911.66 35.69 C912.66 36.05, 913.51 35.35, 916.16 35.21 M911.79 35.68 C912.78 35.49, 913.71 35.52, 916.02 35.1 M916.29 34.83 C917.1 35.08, 918.6 35.18, 920.22 35.68 M916.19 35 C917 35.3, 918.16 35.28, 920.15 36.02 M920.45 35.88 C921.05 36.77, 922.25 37.75, 924 38.19 M920.26 35.8 C921.68 36.86, 922.84 37.54, 923.62 38.24 M924 38.34 C924.57 39.11, 924.56 40.01, 926.5 42 M923.98 38.07 C924.19 39.3, 924.96 40.11, 925.99 41.6 M926.03 41.73 C925.9 42.93, 926.54 43.99, 927.15 46.43 M926.37 41.61 C926.39 43.07, 926.52 44.59, 926.96 45.9" class="line"/>
<text x="34" y="47" class="text">Alert Review Dialog</text>
<path d="M15.53 64.18 C304.56 61.18, 593.82 62.21, 944.17 64.14 M15.65 63.7 C243.77 65.15, 472.34 65.26, 944.19 63.88" class="line thin"/>
<rect x="32" y="76" width="96" height="38" rx="8" class="button fill-only"/>
<path d="M33.23 75.56 C66.34 75.53, 97.62 74.21, 129.79 77.16 M31.31 75.57 C63.89 77.06, 95.17 76.22, 127.6 76.19 M127.3 77.13 C129.23 83, 126.42 93.07, 129.71 113.76 M127.87 76.46 C128.77 88.28, 128.33 101.61, 128.17 113.93 M127.5 115.13 C104.93 114.08, 80.07 115, 32.75 115.19 M128.57 113.87 C96.54 114.16, 64.86 114.38, 31.24 114.53 M33.61 113.58 C31.52 102.94, 31.93 89.42, 31.65 74.75 M32.23 114.87 C32.27 103.9, 31.58 96.37, 32.13 76.07" class="line"/>
<text x="50" y="101" class="text title">Summary</text>
<rect x="126" y="76" width="96" height="38" rx="8" class="button fill-only"/>
<path d="M126.03 74.66 C161.84 76.71, 200.6 75.09, 221.56 74.37 M125.5 75.89 C146.03 76.09, 168.24 75.93, 222.51 76.69 M220.55 77.34 C222.97 83.4, 220.39 93.65, 221.68 115.18 M222.15 76.05 C222.41 89.03, 221.38 102.95, 221.32 114.31 M220.73 114.92 C186.51 114.43, 154.34 111.6, 127.56 113.84 M222.57 114.58 C184.79 113.8, 148.85 114.27, 125.73 114.86 M127.19 114.53 C127.3 100.18, 124.89 89.21, 126.07 77.49 M125.33 114.8 C126.43 101.84, 127.04 91.44, 125.43 75.36" class="line"/>
<text x="144" y="101" class="text">History</text>
<rect x="32" y="113" width="896" height="215" rx="6" class="fill fill-only"/>
<path d="M31.53 113.55 C227.67 111.66, 422.58 112.33, 928.37 112.67 M31.88 113.09 C303.27 110.03, 574.35 110.24, 927.85 112.75 M929.22 114.36 C929.04 157.88, 927.01 201.9, 929.1 327.13 M928.37 112.69 C928.81 197.31, 928.97 280.69, 928.24 328.6 M928.62 328.29 C688.04 327.85, 447.14 328.09, 31.51 327.4 M928.23 327.79 C719.79 331.13, 511.25 330.7, 32.09 327.76 M32.68 329.3 C31.61 242.35, 33.33 160.66, 32.43 113.55 M32.2 328.65 C31.4 247.82, 31.49 168.47, 32.47 113.39" class="line"/>
<rect x="34" y="111" width="92" height="6" class="button fill-only"/>
<rect x="50" y="131" width="860" height="179" rx="6" class="fill fill-only"/>
<path d="M50.49 131.19 C267.67 130.61, 485.53 131.16, 909.48 131 M49.96 131.21 C383.66 129.15, 718.26 128.91, 910.22 130.95 M910.64 132.77 C912.44 168.83, 910.36 205.46, 909.23 310.42 M910.71 130.24 C910.19 170.01, 909.79 207.82, 909.43 309.26 M910.31 310.2 C584.06 307.07, 259.24 307.25, 49.83 310.3 M910.23 310.08 C665.35 311.23, 420.96 310.89, 50.28 309.89 M50.36 308.83 C51.2 268.81, 50.34 226.66, 50.91 130.77 M49.33 310.68 C50.94 267.8, 50.55 225.73, 49.84 130.73" class="line"/>
<rect x="64" y="118" width="88" height="24" class="fill fill-only"/>
<text x="72" y="137" class="text">Summary</text>
<text x="68" y="169" class="text">Supervisor approval required.</text>
<rect x="32" y="328" width="440" height="208" rx="6" class="soft fill-only"/>
<path d="M32.02 327.79 C159.55 328.48, 286.72 329.02, 472.04 328.41 M32.05 328.43 C152.62 326.85, 273.11 326.9, 471.83 328.18 M471.89 326.56 C468.99 372.39, 470.55 415.51, 472.71 534.44 M471.28 328.56 C471.74 378.37, 472.46 427.53, 472.34 535.68 M472 536.15 C345.21 536.65, 216.99 536.8, 32.2 535.69 M472.29 535.55 C324.45 535.81, 176.16 535.52, 31.7 536.02 M31.95 535.81 C31.31 477.99, 31.23 420.62, 33.18 327.04 M32.21 536.54 C31.25 473.69, 32.06 410.79, 31.24 328.73" class="line"/>
<path d="M43.45 339.37 C179.17 400.99, 314.43 459.43, 460.69 524.77 M44.14 339.7 C193.61 405.84, 343.2 472.38, 460.27 524.41" class="line thin muted"/>
<path d="M460.59 340.65 C309.92 405.1, 160.34 471.66, 43.63 523.45 M460.23 339.86 C357.82 385.34, 255.85 430.3, 43.85 523.79" class="line thin muted"/>
<text x="175" y="437" class="text">alert-severity-map</text>
<text x="480" y="348" class="text">Should escalation be automatic after 30 minutes?</text>
<rect x="698" y="556" width="85" height="40" rx="10" class="button fill-only"/>
<path d="M698.05 556.48 C730.08 556.53, 764.95 556.73, 783.59 555.66 M698.68 556.02 C725.45 555.7, 753.77 556.06, 783.6 556.05 M784.22 555.02 C781.49 566.24, 783.99 574.37, 781.32 594.91 M783.02 555.41 C783.03 568.33, 782.07 580.63, 782.64 596.77 M784.26 595.67 C762.96 598.17, 744.64 598.02, 697.22 594.93 M783.6 595.42 C758.29 595.34, 732.98 595.48, 698.86 595.24 M696.69 595.03 C699.17 587.63, 697.8 577.88, 696.99 555.94 M697.33 596.42 C699.11 584.29, 698.53 571.27, 698.65 556.49" class="line"/>
<text x="715" y="581" class="text">Cancel</text>
<rect x="834" y="556" width="94" height="40" rx="10" class="button fill-only"/>
<path d="M832.85 555.58 C855.88 557.75, 879.31 557.65, 926.37 556.47 M834.87 556.34 C854.6 556.54, 875.25 555.79, 927.72 556.54 M928.46 555.23 C926.91 563.04, 929.66 571.35, 927.89 596.33 M928.3 556.81 C927.66 569.12, 927.91 583.86, 928.59 595.34 M928.48 595.46 C897.38 595.01, 866.4 594.7, 834.03 597.18 M928.6 596.13 C895.03 594.99, 862.93 595.38, 833.55 595.57 M832.27 595.98 C833.35 584.79, 832.75 577.49, 833.41 555.08 M834.24 596.35 C834.57 582.11, 833.48 566.09, 833.95 555.78" class="line"/>
<text x="851" y="581" class="text">Approve</text>
<path d="M893.25 175.69 C917.47 145.01, 939.51 116.95, 979.74 61.29 M891.27 177.66 C918.71 142.98, 945.7 107.56, 980.63 59.24" class="note-connector"/>
<rect x="980" y="24" width="180" height="72" rx="6" class="note"/>
<text x="1036" y="46" class="text small">Requires</text>
<text x="997" y="62" class="text small">supervisor review</text>
<text x="1006" y="78" class="text small">before closing.</text>
<path d="M920.05 357.19 C937.07 289.81, 954.37 223.81, 980.95 138.71 M919.54 355.3 C942.69 271.38, 966.39 188.16, 979.78 139.77" class="note-connector"/>
<rect x="980" y="112" width="180" height="56" rx="6" class="note"/>
<text x="993" y="134" class="text small">Resolve escalation</text>
<text x="1040" y="150" class="text small">policy.</text>
</svg>

